<svg xmlns="http://www.w3.org/2000/svg" width="1200" height="630" viewBox="0 0 1200 630" role="img" aria-label="Clear Cart">
  <defs>
    <linearGradient id="bg" x1="0" y1="0" x2="1" y2="1">
      <stop offset="0" stop-color="#e8dfd2" />
      <stop offset="1" stop-color="#f5f0e8" />
    </linearGradient>
    <radialGradient id="blob" cx="0.5" cy="0.5" r="0.5">
      <stop offset="0" stop-color="#ab8abf" stop-opacity="0.75" />
      <stop offset="1" stop-color="#ab8abf" stop-opacity="0" />
    </radialGradient>
  </defs>

  <rect width="1200" height="630" fill="url(#bg)" />
  <circle cx="1010" cy="120" r="290" fill="url(#blob)" />
  <circle cx="120" cy="600" r="220" fill="url(#blob)" />

  <g transform="translate(96 150)">
    <rect x="0" y="0" width="84" height="84" rx="20" fill="#674879" />
    <svg x="8" y="8" width="68" height="68" viewBox="0 0 32 32">
      <g fill="none" stroke="#e8dfd2" stroke-linecap="round" stroke-linejoin="round">
        <path d="M5.5 12h21l-2.4 12.2a2.2 2.2 0 0 1-2.2 1.8H10.1a2.2 2.2 0 0 1-2.2-1.8z" stroke-width="2.2" />
        <path d="M11 12a5 5 0 0 1 10 0" stroke-width="2.2" />
        <path d="M12.4 18.4l2.9 3 5.4-5.8" stroke-width="2.8" />
      </g>
    </svg>
  </g>

  <text x="204" y="207" font-family="Segoe UI, Helvetica, Arial, sans-serif" font-size="58" font-weight="700" fill="#674879">Clear Cart</text>

  <text x="96" y="330" font-family="Segoe UI, Helvetica, Arial, sans-serif" font-size="52" font-weight="700" fill="#674879">Ürünün fotoğrafını çek,</text>
  <text x="96" y="396" font-family="Segoe UI, Helvetica, Arial, sans-serif" font-size="52" font-weight="700" fill="#674879">içinde ne olduğunu öğren.</text>

  <text x="96" y="470" font-family="Segoe UI, Helvetica, Arial, sans-serif" font-size="30" fill="#2e2333">Photograph the product. Know what’s inside in seconds.</text>

  <rect x="96" y="522" width="220" height="6" rx="3" fill="#ab8abf" />
</svg>
